<svg width="64" height="64" viewBox="0 0 64 64" fill="none" xmlns="http://www.w3.org/2000/svg">
<g id="iconfinder_Arrow_Forward_1063879 2">
<path id="Arrow Forward" fill-rule="evenodd" clip-rule="evenodd" d="M0 32.0182C0 31.4842 0.219997 30.9742 0.585999 30.5902L20.384 10.5922C21.166 9.80224 22.432 9.80424 23.212 10.5922C23.994 11.3802 23.994 12.6602 23.212 13.4482L6.826 29.9982H62C63.104 29.9982 64 30.9022 64 32.0182C64 33.1342 63.104 34.0382 62 34.0382H6.828L23.212 50.5882C23.994 51.3762 23.992 52.6562 23.212 53.4442C22.43 54.2322 21.164 54.2322 20.384 53.4442L0.585999 33.4462C0.211998 33.0682 0.00600052 32.5482 0 32.0182Z" fill="#333333"/>
</g>
</svg>
