<svg width="64" height="64" viewBox="0 0 64 64" fill="none" xmlns="http://www.w3.org/2000/svg">
<g id="iconfinder_Arrow_Forward_1063879 1">
<path id="Arrow Forward" fill-rule="evenodd" clip-rule="evenodd" d="M64 32.0182C64 31.4842 63.78 30.9742 63.414 30.5902L43.616 10.5922C42.834 9.80224 41.568 9.80424 40.788 10.5922C40.006 11.3802 40.006 12.6602 40.788 13.4482L57.174 29.9982H2C0.896 29.9982 0 30.9022 0 32.0182C0 33.1342 0.896 34.0382 2 34.0382H57.172L40.788 50.5882C40.006 51.3762 40.008 52.6562 40.788 53.4442C41.57 54.2322 42.836 54.2322 43.616 53.4442L63.414 33.4462C63.788 33.0682 63.994 32.5482 64 32.0182Z" fill="#333333"/>
</g>
</svg>
